<?xml version="1.0" encoding="utf-8"?>
<!-- Generator: Adobe Illustrator 16.0.3, SVG Export Plug-In . SVG Version: 6.00 Build 0)  -->
<!DOCTYPE svg PUBLIC "-//W3C//DTD SVG 1.1//EN" "http://www.w3.org/Graphics/SVG/1.1/DTD/svg11.dtd" [
	<!ENTITY ns_flows "http://ns.adobe.com/Flows/1.0/">
	<!ENTITY ns_extend "http://ns.adobe.com/Extensibility/1.0/">
	<!ENTITY ns_ai "http://ns.adobe.com/AdobeIllustrator/10.0/">
	<!ENTITY ns_graphs "http://ns.adobe.com/Graphs/1.0/">
]>
<svg version="1.1"
	 id="Layer_1" xmlns:x="&ns_extend;" xmlns:i="&ns_ai;" xmlns:graph="&ns_graphs;" sodipodi:docname="shiny_header.svg" inkscape:version="0.48.4 r9939" xmlns:dc="http://purl.org/dc/elements/1.1/" xmlns:cc="http://creativecommons.org/ns#" xmlns:rdf="http://www.w3.org/1999/02/22-rdf-syntax-ns#" xmlns:svg="http://www.w3.org/2000/svg" xmlns:sodipodi="http://sodipodi.sourceforge.net/DTD/sodipodi-0.dtd" xmlns:inkscape="http://www.inkscape.org/namespaces/inkscape"
	 xmlns="http://www.w3.org/2000/svg" xmlns:xlink="http://www.w3.org/1999/xlink" xmlns:a="http://ns.adobe.com/AdobeSVGViewerExtensions/3.0/"
	 x="0px" y="0px" width="163.73px" height="69.766px" viewBox="0 0 163.73 69.766" enable-background="new 0 0 163.73 69.766"
	 xml:space="preserve">
<g enable-background="new    ">
	<path fill="#008BB0" d="M60.704,23.351V15.43h1.639v7.921H60.704z"/>
	<path fill="#008BB0" d="M69.065,23.351h-1.573l0.011-3.564c0-0.308-0.044-0.55-0.121-0.715c-0.154-0.297-0.44-0.451-0.869-0.451
		c-0.517,0-0.869,0.22-1.067,0.671c-0.099,0.231-0.143,0.528-0.143,0.891v3.168h-1.529v-5.842h1.474v0.836
		c0.198-0.297,0.385-0.517,0.561-0.638c0.319-0.231,0.715-0.352,1.199-0.352c0.605,0,1.1,0.154,1.485,0.473
		c0.385,0.319,0.572,0.847,0.572,1.584V23.351z"/>
	<path fill="#008BB0" d="M69.879,17.553h0.814v-1.639h1.518v1.639h0.957v1.089h-0.957v3.091c0,0.242,0.033,0.396,0.088,0.451
		c0.066,0.055,0.253,0.088,0.561,0.088c0.055,0,0.099,0,0.154-0.011c0.055,0,0.099,0,0.154,0v1.145l-0.726,0.022
		c-0.066,0.011-0.121,0.011-0.176,0.011c-0.627,0-1.067-0.132-1.31-0.385c-0.176-0.176-0.264-0.451-0.264-0.814v-3.597h-0.814
		V17.553z"/>
	<path fill="#008BB0" d="M77.536,18.939c-0.099-0.011-0.187-0.022-0.264-0.022c-0.077-0.011-0.132-0.011-0.176-0.011
		c-0.616,0-1.034,0.198-1.243,0.605c-0.121,0.231-0.176,0.572-0.176,1.045v2.794h-1.54v-5.853h1.452v1.023
		c0.242-0.396,0.451-0.66,0.616-0.803c0.297-0.242,0.671-0.363,1.122-0.363c0.033,0,0.055,0,0.077,0
		c0.011,0.011,0.055,0.011,0.132,0.011V18.939z"/>
	<path fill="#008BB0" d="M78.593,22.635c-0.495-0.605-0.748-1.342-0.748-2.2c0-0.847,0.253-1.573,0.748-2.2
		c0.495-0.616,1.243-0.924,2.244-0.924c1.001,0,1.761,0.308,2.255,0.924c0.495,0.627,0.737,1.353,0.737,2.2
		c0,0.858-0.242,1.595-0.737,2.2c-0.494,0.605-1.254,0.914-2.255,0.914C79.836,23.549,79.088,23.241,78.593,22.635z M81.86,19.071
		c-0.231-0.319-0.572-0.473-1.023-0.473c-0.451,0-0.792,0.154-1.045,0.473c-0.242,0.319-0.363,0.781-0.363,1.364
		s0.121,1.034,0.363,1.354c0.253,0.319,0.594,0.484,1.045,0.484c0.451,0,0.792-0.165,1.023-0.484
		c0.242-0.319,0.363-0.771,0.363-1.354S82.102,19.39,81.86,19.071z"/>
	<path fill="#008BB0" d="M88.703,15.441h1.551v7.91H88.77v-0.803c-0.221,0.341-0.474,0.594-0.748,0.759
		c-0.275,0.154-0.627,0.231-1.046,0.231c-0.683,0-1.254-0.275-1.716-0.836c-0.473-0.55-0.705-1.254-0.705-2.124
		c0-1.001,0.232-1.793,0.693-2.365c0.451-0.572,1.067-0.858,1.838-0.858c0.363,0,0.671,0.077,0.945,0.231
		c0.275,0.154,0.507,0.374,0.672,0.649V15.441z M88.208,18.972c-0.22-0.187-0.484-0.286-0.781-0.286
		c-0.451,0.011-0.771,0.176-0.979,0.517c-0.209,0.341-0.318,0.759-0.318,1.254c0,0.539,0.109,0.979,0.33,1.298
		c0.209,0.33,0.527,0.495,0.968,0.495c0.429,0,0.759-0.165,0.979-0.495c0.23-0.319,0.341-0.726,0.341-1.243
		C88.747,19.797,88.571,19.28,88.208,18.972z"/>
	<path fill="#008BB0" d="M93.17,21.03c0,0.33,0.044,0.583,0.121,0.748c0.143,0.297,0.418,0.451,0.825,0.451
		c0.517,0,0.88-0.209,1.078-0.638c0.099-0.231,0.144-0.528,0.144-0.913v-3.18h1.551v5.853h-1.485v-0.825
		c-0.011,0.022-0.056,0.077-0.11,0.165s-0.121,0.165-0.197,0.231c-0.242,0.22-0.474,0.363-0.693,0.44
		c-0.231,0.077-0.496,0.121-0.793,0.121c-0.869,0-1.451-0.308-1.748-0.935c-0.166-0.341-0.254-0.847-0.254-1.518v-3.532h1.563V21.03
		z"/>
	<path fill="#008BB0" d="M101.653,18.994c-0.176-0.231-0.439-0.352-0.803-0.352c-0.518,0-0.869,0.264-1.057,0.781
		c-0.1,0.275-0.154,0.627-0.154,1.078c0,0.429,0.055,0.781,0.154,1.034c0.188,0.495,0.528,0.737,1.034,0.737
		c0.353,0,0.604-0.099,0.759-0.297c0.144-0.187,0.242-0.44,0.275-0.749h1.563c-0.033,0.473-0.209,0.914-0.506,1.32
		c-0.474,0.671-1.188,1.001-2.135,1.001c-0.936,0-1.629-0.275-2.08-0.836c-0.439-0.561-0.659-1.276-0.659-2.167
		c0-1.012,0.241-1.793,0.737-2.354c0.484-0.561,1.154-0.836,2.023-0.836c0.738,0,1.332,0.165,1.805,0.495s0.748,0.913,0.825,1.75
		h-1.563C101.84,19.368,101.774,19.17,101.653,18.994z"/>
	<path fill="#008BB0" d="M103.886,17.553h0.814v-1.639h1.519v1.639h0.957v1.089h-0.957v3.091c0,0.242,0.033,0.396,0.088,0.451
		c0.065,0.055,0.252,0.088,0.561,0.088c0.055,0,0.1,0,0.154-0.011c0.055,0,0.1,0,0.154,0v1.145l-0.727,0.022
		c-0.066,0.011-0.121,0.011-0.176,0.011c-0.627,0-1.067-0.132-1.31-0.385c-0.176-0.176-0.264-0.451-0.264-0.814v-3.597h-0.814
		V17.553z"/>
	<path fill="#008BB0" d="M108.177,16.794v-1.408h1.552v1.408H108.177z M109.729,17.498v5.853h-1.552v-5.853H109.729z"/>
	<path fill="#008BB0" d="M111.598,22.635c-0.494-0.605-0.748-1.342-0.748-2.2c0-0.847,0.254-1.573,0.748-2.2
		c0.496-0.616,1.244-0.924,2.244-0.924c1.002,0,1.762,0.308,2.256,0.924c0.495,0.627,0.737,1.353,0.737,2.2
		c0,0.858-0.242,1.595-0.737,2.2c-0.494,0.605-1.254,0.914-2.256,0.914C112.842,23.549,112.094,23.241,111.598,22.635z
		 M114.865,19.071c-0.23-0.319-0.572-0.473-1.023-0.473c-0.45,0-0.791,0.154-1.045,0.473c-0.242,0.319-0.363,0.781-0.363,1.364
		s0.121,1.034,0.363,1.354c0.254,0.319,0.595,0.484,1.045,0.484c0.451,0,0.793-0.165,1.023-0.484
		c0.242-0.319,0.363-0.771,0.363-1.354S115.108,19.39,114.865,19.071z"/>
	<path fill="#008BB0" d="M123.239,23.351h-1.573l0.011-3.564c0-0.308-0.044-0.55-0.121-0.715c-0.154-0.297-0.439-0.451-0.869-0.451
		c-0.518,0-0.869,0.22-1.066,0.671c-0.1,0.231-0.144,0.528-0.144,0.891v3.168h-1.529v-5.842h1.474v0.836
		c0.199-0.297,0.386-0.517,0.562-0.638c0.319-0.231,0.716-0.352,1.199-0.352c0.604,0,1.101,0.154,1.485,0.473
		c0.385,0.319,0.572,0.847,0.572,1.584V23.351z"/>
	<path fill="#008BB0" d="M127.112,17.553h0.814v-1.639h1.518v1.639h0.957v1.089h-0.957v3.091c0,0.242,0.033,0.396,0.088,0.451
		c0.066,0.055,0.253,0.088,0.561,0.088c0.056,0,0.1,0,0.154-0.011c0.055,0,0.1,0,0.154,0v1.145l-0.727,0.022
		c-0.065,0.011-0.121,0.011-0.176,0.011c-0.627,0-1.066-0.132-1.309-0.385c-0.176-0.176-0.264-0.451-0.264-0.814v-3.597h-0.814
		V17.553z"/>
	<path fill="#008BB0" d="M131.765,22.635c-0.495-0.605-0.748-1.342-0.748-2.2c0-0.847,0.253-1.573,0.748-2.2
		c0.495-0.616,1.243-0.924,2.245-0.924c1,0,1.76,0.308,2.254,0.924c0.496,0.627,0.738,1.353,0.738,2.2
		c0,0.858-0.242,1.595-0.738,2.2c-0.494,0.605-1.254,0.914-2.254,0.914C133.008,23.549,132.26,23.241,131.765,22.635z
		 M135.032,19.071c-0.231-0.319-0.572-0.473-1.022-0.473c-0.451,0-0.793,0.154-1.046,0.473c-0.242,0.319-0.362,0.781-0.362,1.364
		s0.12,1.034,0.362,1.354c0.253,0.319,0.595,0.484,1.046,0.484c0.45,0,0.791-0.165,1.022-0.484c0.242-0.319,0.362-0.771,0.362-1.354
		S135.275,19.39,135.032,19.071z"/>
	<path fill="#008BB0" d="M62.321,34.923c0.275,0.319,0.726,0.484,1.375,0.484c0.396,0,0.715-0.044,0.957-0.132
		c0.462-0.165,0.693-0.462,0.693-0.913c0-0.264-0.11-0.462-0.341-0.605s-0.594-0.264-1.089-0.374l-0.836-0.187
		c-0.825-0.187-1.386-0.396-1.705-0.605c-0.539-0.363-0.803-0.935-0.803-1.716c0-0.715,0.264-1.298,0.781-1.771
		c0.517-0.473,1.265-0.704,2.266-0.704c0.836,0,1.551,0.22,2.134,0.66c0.583,0.451,0.891,1.089,0.924,1.937h-1.584
		c-0.033-0.484-0.242-0.825-0.627-1.023c-0.253-0.132-0.572-0.198-0.957-0.198c-0.429,0-0.77,0.088-1.023,0.264
		c-0.253,0.165-0.385,0.407-0.385,0.715c0,0.286,0.121,0.495,0.374,0.638c0.165,0.088,0.506,0.198,1.034,0.33l1.364,0.319
		c0.594,0.143,1.045,0.341,1.353,0.583c0.473,0.363,0.715,0.902,0.715,1.617c0,0.715-0.275,1.32-0.825,1.793
		c-0.561,0.473-1.342,0.715-2.354,0.715c-1.023,0-1.837-0.231-2.431-0.704c-0.583-0.473-0.88-1.111-0.88-1.936h1.573
		C62.079,34.472,62.178,34.736,62.321,34.923z"/>
	<path fill="#008BB0" d="M67.437,30.753h0.814v-1.639h1.518v1.639h0.957v1.089h-0.957v3.091c0,0.242,0.033,0.396,0.088,0.451
		c0.066,0.055,0.253,0.088,0.561,0.088c0.055,0,0.099,0,0.154-0.011c0.055,0,0.099,0,0.154,0v1.145L70,36.628
		c-0.066,0.011-0.121,0.011-0.176,0.011c-0.627,0-1.067-0.132-1.31-0.385c-0.176-0.176-0.264-0.451-0.264-0.814v-3.597h-0.814
		V30.753z"/>
	<path fill="#008BB0" d="M74.61,32.855c0.209-0.099,0.319-0.242,0.319-0.429c0-0.242-0.077-0.407-0.242-0.506
		c-0.165-0.099-0.407-0.143-0.727-0.143c-0.363,0-0.627,0.088-0.77,0.275c-0.11,0.132-0.187,0.308-0.22,0.539h-1.475
		c0.033-0.517,0.176-0.935,0.429-1.265c0.407-0.517,1.1-0.771,2.08-0.771c0.649,0,1.221,0.132,1.716,0.385
		c0.495,0.253,0.737,0.726,0.737,1.441v2.684c0,0.187,0.011,0.407,0.022,0.671c0.011,0.209,0.033,0.341,0.088,0.406
		c0.055,0.077,0.121,0.133,0.22,0.177v0.23h-1.661c-0.044-0.121-0.077-0.23-0.099-0.33c-0.011-0.099-0.033-0.22-0.044-0.352
		c-0.209,0.23-0.451,0.418-0.726,0.583c-0.33,0.187-0.704,0.286-1.122,0.286c-0.528,0-0.968-0.154-1.31-0.462
		c-0.341-0.298-0.517-0.727-0.517-1.287c0-0.715,0.275-1.243,0.825-1.563c0.308-0.176,0.759-0.297,1.342-0.374l0.517-0.066
		C74.28,32.953,74.489,32.909,74.61,32.855z M74.643,33.844c-0.099,0.044-0.242,0.077-0.418,0.11l-0.341,0.066
		c-0.319,0.055-0.55,0.132-0.693,0.209c-0.231,0.143-0.352,0.352-0.352,0.649c0,0.264,0.077,0.451,0.22,0.561
		c0.143,0.121,0.319,0.188,0.528,0.188c0.33,0,0.638-0.099,0.913-0.297c0.275-0.187,0.418-0.539,0.429-1.056v-0.572
		C74.83,33.768,74.742,33.812,74.643,33.844z"/>
	<path fill="#008BB0" d="M77.218,30.753h0.814v-1.639h1.518v1.639h0.957v1.089H79.55v3.091c0,0.242,0.033,0.396,0.088,0.451
		c0.066,0.055,0.253,0.088,0.561,0.088c0.055,0,0.099,0,0.154-0.011c0.055,0,0.099,0,0.154,0v1.145l-0.726,0.021
		c-0.066,0.011-0.121,0.011-0.176,0.011c-0.627,0-1.067-0.132-1.31-0.385c-0.176-0.176-0.264-0.451-0.264-0.814v-3.597h-0.814
		V30.753z"/>
	<path fill="#008BB0" d="M81.509,29.994v-1.408h1.55v1.408H81.509z M83.059,30.698v5.853h-1.55v-5.853H83.059z"/>
	<path fill="#008BB0" d="M85.942,35.264c0.188,0.208,0.539,0.308,1.057,0.308c0.297,0,0.539-0.044,0.727-0.144
		c0.164-0.087,0.252-0.22,0.252-0.396c0-0.176-0.065-0.308-0.209-0.396c-0.143-0.088-0.682-0.242-1.595-0.462
		c-0.66-0.165-1.134-0.363-1.408-0.616c-0.274-0.242-0.407-0.594-0.407-1.057c0-0.539,0.209-1.001,0.639-1.397
		c0.429-0.385,1.023-0.572,1.793-0.572c0.736,0,1.331,0.143,1.793,0.429c0.451,0.297,0.715,0.803,0.781,1.518h-1.529
		c-0.021-0.198-0.076-0.352-0.165-0.473c-0.165-0.209-0.45-0.308-0.858-0.308c-0.33,0-0.561,0.055-0.703,0.154
		c-0.144,0.099-0.221,0.22-0.221,0.363c0,0.176,0.077,0.308,0.23,0.385c0.144,0.077,0.683,0.22,1.596,0.429
		c0.605,0.143,1.067,0.352,1.364,0.649c0.298,0.297,0.451,0.66,0.451,1.1c0,0.583-0.22,1.056-0.649,1.419
		c-0.429,0.363-1.1,0.55-2.002,0.55c-0.913,0-1.596-0.198-2.035-0.583s-0.66-0.88-0.66-1.485h1.551
		C85.766,34.956,85.843,35.154,85.942,35.264z"/>
	<path fill="#008BB0" d="M90.057,30.753h0.814v-1.639h1.518v1.639h0.957v1.089h-0.957v3.091c0,0.242,0.033,0.396,0.088,0.451
		c0.066,0.055,0.253,0.088,0.561,0.088c0.056,0,0.1,0,0.154-0.011c0.055,0,0.1,0,0.154,0v1.145l-0.727,0.021
		c-0.065,0.011-0.121,0.011-0.176,0.011c-0.627,0-1.066-0.132-1.309-0.385c-0.176-0.176-0.264-0.451-0.264-0.814v-3.597h-0.814
		V30.753z"/>
	<path fill="#008BB0" d="M94.348,29.994v-1.408h1.551v1.408H94.348z M95.899,30.698v5.853h-1.551v-5.853H95.899z"/>
	<path fill="#008BB0" d="M100.662,32.195c-0.176-0.231-0.439-0.352-0.803-0.352c-0.518,0-0.869,0.264-1.057,0.781
		c-0.1,0.275-0.154,0.627-0.154,1.078c0,0.429,0.055,0.781,0.154,1.034c0.188,0.495,0.528,0.737,1.034,0.737
		c0.353,0,0.604-0.099,0.759-0.296c0.144-0.187,0.242-0.44,0.275-0.749h1.563c-0.033,0.473-0.209,0.914-0.506,1.32
		c-0.474,0.671-1.188,1.001-2.135,1.001c-0.936,0-1.629-0.275-2.08-0.836c-0.439-0.561-0.659-1.276-0.659-2.167
		c0-1.012,0.241-1.793,0.737-2.354c0.484-0.561,1.154-0.836,2.023-0.836c0.738,0,1.332,0.165,1.805,0.495s0.748,0.913,0.825,1.75
		h-1.563C100.85,32.569,100.783,32.37,100.662,32.195z"/>
	<path fill="#008BB0" d="M106.406,32.855c0.209-0.099,0.319-0.242,0.319-0.429c0-0.242-0.078-0.407-0.242-0.506
		c-0.165-0.099-0.407-0.143-0.727-0.143c-0.363,0-0.627,0.088-0.77,0.275c-0.11,0.132-0.188,0.308-0.221,0.539h-1.475
		c0.033-0.517,0.177-0.935,0.43-1.265c0.407-0.517,1.1-0.771,2.08-0.771c0.648,0,1.221,0.132,1.715,0.385
		c0.496,0.253,0.738,0.726,0.738,1.441v2.684c0,0.187,0.011,0.407,0.021,0.671c0.012,0.209,0.033,0.341,0.088,0.406
		c0.055,0.077,0.121,0.133,0.221,0.177v0.23h-1.662c-0.043-0.121-0.076-0.23-0.099-0.33c-0.011-0.099-0.033-0.22-0.044-0.352
		c-0.209,0.23-0.451,0.418-0.727,0.583c-0.33,0.187-0.703,0.286-1.121,0.286c-0.529,0-0.969-0.154-1.311-0.462
		c-0.34-0.298-0.517-0.727-0.517-1.287c0-0.715,0.275-1.243,0.825-1.563c0.309-0.176,0.76-0.297,1.342-0.374l0.518-0.066
		C106.075,32.953,106.284,32.909,106.406,32.855z M106.438,33.844c-0.098,0.044-0.241,0.077-0.418,0.11l-0.34,0.066
		c-0.32,0.055-0.551,0.132-0.693,0.209c-0.231,0.143-0.353,0.352-0.353,0.649c0,0.264,0.077,0.451,0.22,0.561
		c0.144,0.121,0.319,0.188,0.528,0.188c0.33,0,0.638-0.099,0.913-0.297c0.275-0.187,0.418-0.539,0.43-1.056v-0.572
		C106.625,33.768,106.537,33.812,106.438,33.844z"/>
	<path fill="#008BB0" d="M109.651,36.551v-7.92h1.529v7.92H109.651z"/>
	<path fill="#008BB0" d="M60.704,49.751v-7.922h1.639v7.922H60.704z"/>
	<path fill="#008BB0" d="M67.536,41.841h1.551v7.91h-1.485v-0.804c-0.22,0.342-0.473,0.595-0.748,0.76
		c-0.275,0.153-0.627,0.23-1.045,0.23c-0.682,0-1.254-0.274-1.716-0.836c-0.473-0.55-0.704-1.254-0.704-2.123
		c0-1.001,0.231-1.793,0.693-2.365c0.451-0.572,1.067-0.858,1.837-0.858c0.363,0,0.671,0.077,0.946,0.231
		c0.275,0.153,0.506,0.374,0.671,0.648V41.841z M67.041,45.372c-0.22-0.187-0.484-0.286-0.781-0.286
		c-0.451,0.011-0.77,0.176-0.979,0.518c-0.209,0.341-0.319,0.759-0.319,1.254c0,0.539,0.11,0.979,0.33,1.298
		c0.209,0.33,0.528,0.495,0.968,0.495c0.429,0,0.759-0.165,0.979-0.495c0.231-0.318,0.341-0.726,0.341-1.243
		C67.58,46.197,67.404,45.679,67.041,45.372z"/>
	<path fill="#008BB0" d="M75.523,46.087c0.033,0.231,0.044,0.539,0.044,0.936c0,0.077,0,0.143,0,0.22h-4.004
		c0.022,0.583,0.209,1.001,0.55,1.232c0.209,0.154,0.473,0.231,0.77,0.231c0.319,0,0.572-0.089,0.771-0.275
		c0.099-0.1,0.198-0.231,0.275-0.396h1.573c-0.044,0.342-0.231,0.693-0.55,1.057c-0.495,0.561-1.199,0.847-2.101,0.847
		c-0.748,0-1.408-0.242-1.969-0.715c-0.572-0.473-0.858-1.254-0.858-2.344c0-1.012,0.253-1.793,0.77-2.332s1.177-0.803,2.002-0.803
		c0.484,0,0.924,0.088,1.32,0.274c0.385,0.177,0.704,0.463,0.957,0.858C75.303,45.218,75.457,45.625,75.523,46.087z M73.983,46.241
		c-0.033-0.407-0.154-0.715-0.363-0.924c-0.231-0.209-0.506-0.319-0.825-0.319c-0.352,0-0.627,0.11-0.825,0.341
		c-0.198,0.221-0.319,0.518-0.363,0.902H73.983z"/>
	<path fill="#008BB0" d="M79.506,46.053c0.209-0.099,0.319-0.241,0.319-0.429c0-0.242-0.077-0.407-0.242-0.506
		c-0.165-0.099-0.407-0.144-0.726-0.144c-0.363,0-0.627,0.089-0.77,0.275c-0.11,0.132-0.187,0.309-0.22,0.539h-1.475
		c0.033-0.517,0.176-0.935,0.429-1.265c0.407-0.518,1.1-0.771,2.08-0.771c0.649,0,1.221,0.132,1.716,0.385
		c0.495,0.253,0.737,0.727,0.737,1.441v2.685c0,0.187,0.011,0.407,0.022,0.671c0.011,0.209,0.033,0.341,0.088,0.407
		c0.055,0.077,0.121,0.132,0.22,0.176v0.231h-1.661c-0.044-0.121-0.077-0.231-0.099-0.33c-0.011-0.1-0.033-0.221-0.044-0.353
		c-0.209,0.231-0.451,0.418-0.726,0.583c-0.33,0.188-0.704,0.286-1.122,0.286c-0.528,0-0.968-0.153-1.31-0.462
		c-0.341-0.297-0.517-0.726-0.517-1.287c0-0.715,0.275-1.243,0.825-1.563c0.308-0.176,0.759-0.297,1.342-0.374l0.517-0.065
		C79.176,46.153,79.385,46.109,79.506,46.053z M79.539,47.044c-0.099,0.044-0.242,0.077-0.418,0.11L78.78,47.22
		c-0.319,0.055-0.55,0.132-0.693,0.209c-0.231,0.143-0.352,0.352-0.352,0.648c0,0.265,0.077,0.451,0.22,0.562
		c0.143,0.121,0.319,0.187,0.528,0.187c0.33,0,0.638-0.099,0.913-0.297c0.275-0.187,0.418-0.539,0.429-1.056v-0.572
		C79.726,46.968,79.638,47.011,79.539,47.044z"/>
	<path fill="#008BB0" d="M84.115,48.464c0.188,0.209,0.539,0.308,1.057,0.308c0.297,0,0.539-0.044,0.727-0.143
		c0.164-0.088,0.252-0.221,0.252-0.396s-0.065-0.308-0.209-0.396c-0.143-0.089-0.682-0.242-1.595-0.463
		c-0.66-0.165-1.134-0.362-1.408-0.616c-0.274-0.241-0.407-0.594-0.407-1.056c0-0.539,0.209-1.001,0.639-1.397
		c0.429-0.385,1.023-0.572,1.793-0.572c0.736,0,1.331,0.144,1.793,0.43c0.451,0.297,0.715,0.803,0.781,1.518h-1.529
		c-0.021-0.197-0.076-0.352-0.165-0.473c-0.165-0.209-0.45-0.308-0.858-0.308c-0.33,0-0.561,0.055-0.703,0.153
		c-0.144,0.1-0.221,0.221-0.221,0.363c0,0.176,0.077,0.309,0.23,0.385c0.144,0.077,0.683,0.221,1.596,0.43
		c0.605,0.143,1.067,0.352,1.364,0.648c0.298,0.298,0.451,0.66,0.451,1.101c0,0.583-0.22,1.056-0.649,1.419
		c-0.429,0.363-1.1,0.551-2.002,0.551c-0.913,0-1.596-0.198-2.035-0.584c-0.439-0.385-0.66-0.88-0.66-1.484h1.551
		C83.94,48.155,84.017,48.353,84.115,48.464z"/>
	<path fill="#008BB0" d="M94.799,46.053c0.209-0.099,0.318-0.241,0.318-0.429c0-0.242-0.077-0.407-0.242-0.506
		c-0.164-0.099-0.406-0.144-0.727-0.144c-0.362,0-0.627,0.089-0.77,0.275c-0.109,0.132-0.188,0.309-0.22,0.539h-1.475
		c0.033-0.517,0.177-0.935,0.429-1.265c0.408-0.518,1.101-0.771,2.08-0.771c0.648,0,1.221,0.132,1.716,0.385
		s0.737,0.727,0.737,1.441v2.685c0,0.187,0.012,0.407,0.021,0.671c0.012,0.209,0.033,0.341,0.088,0.407
		c0.056,0.077,0.121,0.132,0.221,0.176v0.231h-1.661c-0.044-0.121-0.077-0.231-0.099-0.33c-0.012-0.1-0.033-0.221-0.045-0.353
		c-0.209,0.231-0.451,0.418-0.726,0.583c-0.33,0.188-0.704,0.286-1.122,0.286c-0.528,0-0.969-0.153-1.31-0.462
		c-0.341-0.297-0.517-0.726-0.517-1.287c0-0.715,0.275-1.243,0.824-1.563c0.309-0.176,0.76-0.297,1.343-0.374l0.517-0.065
		C94.469,46.153,94.678,46.109,94.799,46.053z M94.831,47.044c-0.099,0.044-0.241,0.077-0.418,0.11l-0.341,0.066
		c-0.319,0.055-0.551,0.132-0.693,0.209c-0.23,0.143-0.352,0.352-0.352,0.648c0,0.265,0.076,0.451,0.22,0.562
		c0.144,0.121,0.319,0.187,0.528,0.187c0.33,0,0.638-0.099,0.912-0.297c0.275-0.187,0.419-0.539,0.43-1.056v-0.572
		C95.018,46.968,94.93,47.011,94.831,47.044z"/>
	<path fill="#008BB0" d="M103.315,49.751h-1.574l0.012-3.564c0-0.309-0.045-0.551-0.121-0.716c-0.154-0.297-0.44-0.45-0.869-0.45
		c-0.518,0-0.869,0.22-1.067,0.671c-0.099,0.23-0.144,0.527-0.144,0.891v3.169h-1.529v-5.842h1.475v0.836
		c0.198-0.297,0.385-0.518,0.561-0.639c0.32-0.23,0.716-0.352,1.199-0.352c0.605,0,1.101,0.154,1.486,0.473
		c0.385,0.319,0.572,0.848,0.572,1.585V49.751z"/>
	<path fill="#008BB0" d="M108.507,41.841h1.552v7.91h-1.486v-0.804c-0.22,0.342-0.473,0.595-0.748,0.76
		c-0.274,0.153-0.627,0.23-1.045,0.23c-0.682,0-1.254-0.274-1.717-0.836c-0.473-0.55-0.703-1.254-0.703-2.123
		c0-1.001,0.23-1.793,0.693-2.365c0.451-0.572,1.066-0.858,1.837-0.858c0.362,0,0.671,0.077,0.946,0.231
		c0.275,0.153,0.506,0.374,0.671,0.648V41.841z M108.012,45.372c-0.221-0.187-0.484-0.286-0.781-0.286
		c-0.451,0.011-0.77,0.176-0.979,0.518c-0.209,0.341-0.32,0.759-0.32,1.254c0,0.539,0.111,0.979,0.33,1.298
		c0.209,0.33,0.529,0.495,0.969,0.495c0.43,0,0.76-0.165,0.979-0.495c0.232-0.318,0.342-0.726,0.342-1.243
		C108.551,46.197,108.375,45.679,108.012,45.372z"/>
	<path fill="#008BB0" d="M122.26,41.829v7.922h-1.541v-5.358c0-0.153,0-0.374,0-0.648c0.012-0.275,0.012-0.484,0.012-0.639
		l-1.497,6.646h-1.606l-1.484-6.646c0,0.154,0,0.363,0,0.639c0.011,0.274,0.011,0.495,0.011,0.648v5.358h-1.54v-7.922h2.398
		l1.441,6.228l1.43-6.228H122.26z"/>
	<path fill="#008BB0" d="M128.717,46.087c0.033,0.231,0.045,0.539,0.045,0.936c0,0.077,0,0.143,0,0.22h-4.005
		c0.022,0.583,0.209,1.001,0.55,1.232c0.209,0.154,0.473,0.231,0.77,0.231c0.32,0,0.572-0.089,0.771-0.275
		c0.098-0.1,0.197-0.231,0.274-0.396h1.573c-0.044,0.342-0.23,0.693-0.551,1.057c-0.494,0.561-1.199,0.847-2.101,0.847
		c-0.748,0-1.408-0.242-1.97-0.715c-0.572-0.473-0.857-1.254-0.857-2.344c0-1.012,0.252-1.793,0.77-2.332s1.178-0.803,2.002-0.803
		c0.484,0,0.925,0.088,1.32,0.274c0.385,0.177,0.705,0.463,0.957,0.858C128.497,45.218,128.652,45.625,128.717,46.087z
		 M127.177,46.241c-0.032-0.407-0.153-0.715-0.362-0.924c-0.231-0.209-0.506-0.319-0.826-0.319c-0.352,0-0.627,0.11-0.824,0.341
		c-0.198,0.221-0.319,0.518-0.363,0.902H127.177z"/>
	<path fill="#008BB0" d="M129.191,43.953h0.814v-1.64h1.519v1.64h0.957v1.089h-0.957v3.092c0,0.242,0.033,0.396,0.088,0.451
		c0.065,0.055,0.252,0.088,0.561,0.088c0.055,0,0.1,0,0.154-0.012c0.055,0,0.1,0,0.154,0v1.145l-0.727,0.022
		c-0.066,0.011-0.121,0.011-0.176,0.011c-0.627,0-1.067-0.132-1.31-0.385c-0.176-0.177-0.264-0.451-0.264-0.814v-3.598h-0.814
		V43.953z"/>
	<path fill="#008BB0" d="M138.696,45.174c0.033,0.231,0.056,0.616,0.056,1.134v3.443h-1.562v-3.564c0-0.319-0.056-0.572-0.166-0.771
		c-0.143-0.275-0.406-0.407-0.792-0.407c-0.407,0-0.715,0.132-0.924,0.407S135,46.087,135,46.582v3.169h-1.529v-7.889H135v2.795
		c0.22-0.341,0.473-0.583,0.77-0.716c0.286-0.132,0.594-0.197,0.913-0.197c0.363,0,0.693,0.065,0.99,0.187s0.539,0.319,0.726,0.572
		C138.565,44.722,138.663,44.943,138.696,45.174z"/>
	<path fill="#008BB0" d="M140.567,49.035c-0.495-0.604-0.748-1.342-0.748-2.2c0-0.847,0.253-1.573,0.748-2.2
		c0.495-0.616,1.243-0.924,2.244-0.924c1.002,0,1.76,0.308,2.256,0.924c0.494,0.627,0.736,1.354,0.736,2.2
		c0,0.858-0.242,1.596-0.736,2.2c-0.496,0.605-1.254,0.914-2.256,0.914C141.81,49.949,141.062,49.64,140.567,49.035z M143.834,45.47
		c-0.23-0.318-0.572-0.473-1.023-0.473s-0.792,0.154-1.045,0.473c-0.242,0.319-0.363,0.781-0.363,1.364s0.121,1.034,0.363,1.354
		c0.253,0.319,0.594,0.484,1.045,0.484s0.793-0.165,1.023-0.484c0.242-0.319,0.363-0.771,0.363-1.354S144.076,45.79,143.834,45.47z"
		/>
	<path fill="#008BB0" d="M150.678,41.841h1.551v7.91h-1.485v-0.804c-0.22,0.342-0.474,0.595-0.748,0.76
		c-0.274,0.153-0.627,0.23-1.046,0.23c-0.682,0-1.254-0.274-1.716-0.836c-0.473-0.55-0.704-1.254-0.704-2.123
		c0-1.001,0.231-1.793,0.693-2.365c0.451-0.572,1.066-0.858,1.838-0.858c0.362,0,0.67,0.077,0.945,0.231
		c0.275,0.153,0.506,0.374,0.672,0.648V41.841z M150.182,45.372c-0.22-0.187-0.484-0.286-0.781-0.286
		c-0.451,0.011-0.77,0.176-0.979,0.518c-0.209,0.341-0.319,0.759-0.319,1.254c0,0.539,0.11,0.979,0.33,1.298
		c0.209,0.33,0.528,0.495,0.968,0.495c0.43,0,0.76-0.165,0.979-0.495c0.231-0.318,0.341-0.726,0.341-1.243
		C150.721,46.197,150.545,45.679,150.182,45.372z"/>
	<path fill="#008BB0" d="M155.024,48.464c0.187,0.209,0.539,0.308,1.056,0.308c0.297,0,0.539-0.044,0.726-0.143
		c0.166-0.088,0.254-0.221,0.254-0.396s-0.066-0.308-0.209-0.396c-0.144-0.089-0.683-0.242-1.596-0.463
		c-0.66-0.165-1.133-0.362-1.408-0.616c-0.275-0.241-0.406-0.594-0.406-1.056c0-0.539,0.209-1.001,0.637-1.397
		c0.43-0.385,1.023-0.572,1.794-0.572c0.737,0,1.331,0.144,1.794,0.43c0.45,0.297,0.715,0.803,0.78,1.518h-1.529
		c-0.022-0.197-0.077-0.352-0.165-0.473c-0.165-0.209-0.451-0.308-0.857-0.308c-0.33,0-0.562,0.055-0.705,0.153
		c-0.143,0.1-0.22,0.221-0.22,0.363c0,0.176,0.077,0.309,0.231,0.385c0.143,0.077,0.682,0.221,1.596,0.43
		c0.604,0.143,1.066,0.352,1.363,0.648c0.297,0.298,0.451,0.66,0.451,1.101c0,0.583-0.22,1.056-0.648,1.419
		c-0.43,0.363-1.101,0.551-2.003,0.551c-0.913,0-1.595-0.198-2.035-0.584c-0.44-0.385-0.66-0.88-0.66-1.484h1.552
		C154.848,48.155,154.924,48.353,155.024,48.464z"/>
</g>
<g>
	<linearGradient id="SVGID_1_" gradientUnits="userSpaceOnUse" x1="32.3918" y1="56.283" x2="32.3918" y2="61.4207">
		<stop  offset="0" style="stop-color:#008BB0;stop-opacity:0.36"/>
		<stop  offset="0.2721" style="stop-color:#4DAEC8;stop-opacity:0.262"/>
		<stop  offset="0.6302" style="stop-color:#ACD9E5;stop-opacity:0.1331"/>
		<stop  offset="0.8809" style="stop-color:#E8F4F8;stop-opacity:0.0429"/>
		<stop  offset="1" style="stop-color:#FFFFFF;stop-opacity:0"/>
		<a:midPointStop  offset="0" style="stop-color:#008BB0;stop-opacity:0.36"/>
		<a:midPointStop  offset="0.46" style="stop-color:#008BB0;stop-opacity:0.36"/>
		<a:midPointStop  offset="1" style="stop-color:#FFFFFF;stop-opacity:0"/>
	</linearGradient>
	<path fill="url(#SVGID_1_)" d="M17.818,61.357c4.004-3.178,9.052-5.074,14.534-5.074c5.519,0,10.598,1.921,14.614,5.138
		L17.818,61.357z"/>
	<linearGradient id="SVGID_2_" gradientUnits="userSpaceOnUse" x1="32.3528" y1="8.3796" x2="32.3528" y2="56.0715">
		<stop  offset="0" style="stop-color:#75C0D4"/>
		<stop  offset="0.2367" style="stop-color:#5EB6CD"/>
		<stop  offset="0.7312" style="stop-color:#239BBB"/>
		<stop  offset="1" style="stop-color:#008BB0"/>
		<a:midPointStop  offset="0" style="stop-color:#75C0D4"/>
		<a:midPointStop  offset="0.54" style="stop-color:#75C0D4"/>
		<a:midPointStop  offset="1" style="stop-color:#008BB0"/>
	</linearGradient>
	<linearGradient id="SVGID_3_" gradientUnits="userSpaceOnUse" x1="32.3528" y1="8.2151" x2="32.3528" y2="56.2366">
		<stop  offset="0" style="stop-color:#ACD9E5"/>
		<stop  offset="0.1684" style="stop-color:#95C6D2"/>
		<stop  offset="0.5226" style="stop-color:#5992A1"/>
		<stop  offset="1" style="stop-color:#004658"/>
		<a:midPointStop  offset="0" style="stop-color:#ACD9E5"/>
		<a:midPointStop  offset="0.54" style="stop-color:#ACD9E5"/>
		<a:midPointStop  offset="1" style="stop-color:#004658"/>
	</linearGradient>
	<path fill="url(#SVGID_2_)" stroke="url(#SVGID_3_)" stroke-width="0.3293" stroke-miterlimit="10" d="M55.92,32.22
		c0,13.163-10.551,23.851-23.568,23.851c-13.016,0-23.566-10.688-23.566-23.851c0-13.16,10.551-23.841,23.566-23.841
		C45.369,8.38,55.92,19.06,55.92,32.22z"/>
	<g>
		<linearGradient id="SVGID_4_" gradientUnits="userSpaceOnUse" x1="18.8635" y1="18.7341" x2="45.8427" y2="45.7133">
			<stop  offset="0" style="stop-color:#E5E2DF"/>
			<stop  offset="0" style="stop-color:#E1E1E1"/>
			<stop  offset="0.0457" style="stop-color:#D2D2D2"/>
			<stop  offset="0.1334" style="stop-color:#ABABAB"/>
			<stop  offset="0.2532" style="stop-color:#6D6D6D"/>
			<stop  offset="0.269" style="stop-color:#646464"/>
			<stop  offset="0.2696" style="stop-color:#646464"/>
			<stop  offset="0.3746" style="stop-color:#A6A6A6"/>
			<stop  offset="0.4629" style="stop-color:#D6D6D6"/>
			<stop  offset="0.53" style="stop-color:#F4F4F4"/>
			<stop  offset="0.568" style="stop-color:#FFFFFF"/>
			<stop  offset="0.6155" style="stop-color:#F5F6F6"/>
			<stop  offset="0.6954" style="stop-color:#DBDDDF"/>
			<stop  offset="0.7972" style="stop-color:#B1B5B9"/>
			<stop  offset="0.8764" style="stop-color:#8B9298"/>
			<stop  offset="1" style="stop-color:#D1D3D4"/>
			<stop  offset="1" style="stop-color:#CFCFCF"/>
			<a:midPointStop  offset="0" style="stop-color:#E5E2DF"/>
			<a:midPointStop  offset="0.5618" style="stop-color:#E5E2DF"/>
			<a:midPointStop  offset="0" style="stop-color:#E1E1E1"/>
			<a:midPointStop  offset="0.5618" style="stop-color:#E1E1E1"/>
			<a:midPointStop  offset="0.269" style="stop-color:#646464"/>
			<a:midPointStop  offset="0.4182" style="stop-color:#646464"/>
			<a:midPointStop  offset="0.568" style="stop-color:#FFFFFF"/>
			<a:midPointStop  offset="0.5926" style="stop-color:#FFFFFF"/>
			<a:midPointStop  offset="0.8764" style="stop-color:#8B9298"/>
			<a:midPointStop  offset="0.5" style="stop-color:#8B9298"/>
			<a:midPointStop  offset="1" style="stop-color:#D1D3D4"/>
			<a:midPointStop  offset="0.5" style="stop-color:#D1D3D4"/>
			<a:midPointStop  offset="1" style="stop-color:#CFCFCF"/>
		</linearGradient>
		<path fill="url(#SVGID_4_)" d="M51.337,32.22c0,10.582-8.5,19.18-18.985,19.18c-10.484,0-18.984-8.598-18.984-19.18
			c0-10.581,8.5-19.17,18.984-19.17C42.837,13.051,51.337,21.639,51.337,32.22z"/>
		<g>
			
				<image overflow="visible" width="38.298" height="38.678" xlink:href="71F375D.png"  transform="matrix(1 0 0 1 13.2034 12.8865)"/>
		</g>
	</g>
	<linearGradient id="SVGID_5_" gradientUnits="userSpaceOnUse" x1="32.3528" y1="13.6868" x2="32.3528" y2="50.872">
		<stop  offset="0" style="stop-color:#C8C8C8"/>
		<stop  offset="0.0368" style="stop-color:#D7D7D7"/>
		<stop  offset="0.1236" style="stop-color:#F4F4F4"/>
		<stop  offset="0.173" style="stop-color:#FFFFFF"/>
		<stop  offset="0.2732" style="stop-color:#FCFCFC"/>
		<stop  offset="0.3431" style="stop-color:#F3F3F3"/>
		<stop  offset="0.4038" style="stop-color:#E4E4E4"/>
		<stop  offset="0.4592" style="stop-color:#CECECE"/>
		<stop  offset="0.5107" style="stop-color:#B2B2B2"/>
		<stop  offset="0.515" style="stop-color:#AFAFAF"/>
		<stop  offset="0.5249" style="stop-color:#BABABA"/>
		<stop  offset="0.55" style="stop-color:#D0D0D0"/>
		<stop  offset="0.5795" style="stop-color:#E1E1E1"/>
		<stop  offset="0.6161" style="stop-color:#ECECEC"/>
		<stop  offset="0.6675" style="stop-color:#F3F3F3"/>
		<stop  offset="0.81" style="stop-color:#F5F5F5"/>
		<stop  offset="0.8534" style="stop-color:#E2E3E4"/>
		<stop  offset="0.9414" style="stop-color:#B0B4B8"/>
		<stop  offset="1" style="stop-color:#8B9298"/>
		<a:midPointStop  offset="0" style="stop-color:#C8C8C8"/>
		<a:midPointStop  offset="0.4182" style="stop-color:#C8C8C8"/>
		<a:midPointStop  offset="0.173" style="stop-color:#FFFFFF"/>
		<a:midPointStop  offset="0.7751" style="stop-color:#FFFFFF"/>
		<a:midPointStop  offset="0.515" style="stop-color:#AFAFAF"/>
		<a:midPointStop  offset="0.13" style="stop-color:#AFAFAF"/>
		<a:midPointStop  offset="0.81" style="stop-color:#F5F5F5"/>
		<a:midPointStop  offset="0.5476" style="stop-color:#F5F5F5"/>
		<a:midPointStop  offset="1" style="stop-color:#8B9298"/>
	</linearGradient>
	<linearGradient id="SVGID_6_" gradientUnits="userSpaceOnUse" x1="32.3528" y1="13.1951" x2="32.3528" y2="51.2551">
		<stop  offset="0" style="stop-color:#E5E2DF"/>
		<stop  offset="0" style="stop-color:#D6D7D7"/>
		<stop  offset="0" style="stop-color:#D1D3D4"/>
		<stop  offset="0.096" style="stop-color:#EDEEEE"/>
		<stop  offset="0.1517" style="stop-color:#FFFFFF"/>
		<stop  offset="0.1744" style="stop-color:#F5F5F6"/>
		<stop  offset="0.2125" style="stop-color:#DBDCDD"/>
		<stop  offset="0.2611" style="stop-color:#B1B2B4"/>
		<stop  offset="0.2872" style="stop-color:#97999C"/>
		<stop  offset="0.3391" style="stop-color:#9A9C9E"/>
		<stop  offset="0.3704" style="stop-color:#A2A4A7"/>
		<stop  offset="0.3961" style="stop-color:#B0B2B4"/>
		<stop  offset="0.4187" style="stop-color:#C4C6C8"/>
		<stop  offset="0.4296" style="stop-color:#D1D3D4"/>
		<stop  offset="0.4617" style="stop-color:#C7C9CA"/>
		<stop  offset="0.5157" style="stop-color:#ADAFB0"/>
		<stop  offset="0.5845" style="stop-color:#838586"/>
		<stop  offset="0.6461" style="stop-color:#58595B"/>
		<stop  offset="0.6666" style="stop-color:#626365"/>
		<stop  offset="0.7013" style="stop-color:#7C7D7E"/>
		<stop  offset="0.7458" style="stop-color:#A7A7A8"/>
		<stop  offset="0.7979" style="stop-color:#E1E1E2"/>
		<stop  offset="0.822" style="stop-color:#FFFFFF"/>
		<stop  offset="0.8233" style="stop-color:#FDFDFD"/>
		<stop  offset="0.8607" style="stop-color:#BBBABA"/>
		<stop  offset="0.8962" style="stop-color:#858383"/>
		<stop  offset="0.9288" style="stop-color:#5B5858"/>
		<stop  offset="0.958" style="stop-color:#3C393A"/>
		<stop  offset="0.9827" style="stop-color:#2A2627"/>
		<stop  offset="1" style="stop-color:#231F20"/>
		<a:midPointStop  offset="0" style="stop-color:#E5E2DF"/>
		<a:midPointStop  offset="0.5618" style="stop-color:#E5E2DF"/>
		<a:midPointStop  offset="0" style="stop-color:#D1D3D4"/>
		<a:midPointStop  offset="0.5333" style="stop-color:#D1D3D4"/>
		<a:midPointStop  offset="0.1517" style="stop-color:#FFFFFF"/>
		<a:midPointStop  offset="0.5926" style="stop-color:#FFFFFF"/>
		<a:midPointStop  offset="0.2872" style="stop-color:#97999C"/>
		<a:midPointStop  offset="0.8" style="stop-color:#97999C"/>
		<a:midPointStop  offset="0.4296" style="stop-color:#D1D3D4"/>
		<a:midPointStop  offset="0.5926" style="stop-color:#D1D3D4"/>
		<a:midPointStop  offset="0.6461" style="stop-color:#58595B"/>
		<a:midPointStop  offset="0.5926" style="stop-color:#58595B"/>
		<a:midPointStop  offset="0.822" style="stop-color:#FFFFFF"/>
		<a:midPointStop  offset="0.3699" style="stop-color:#FFFFFF"/>
		<a:midPointStop  offset="1" style="stop-color:#231F20"/>
	</linearGradient>
	<path fill="url(#SVGID_5_)" stroke="url(#SVGID_6_)" stroke-width="0.2195" stroke-miterlimit="10" d="M51.054,32.22
		c0,10.443-8.373,18.925-18.703,18.925c-10.327,0-18.701-8.481-18.701-18.925c0-10.441,8.374-18.916,18.701-18.916
		C42.681,13.305,51.054,21.779,51.054,32.22z"/>
	<linearGradient id="SVGID_7_" gradientUnits="userSpaceOnUse" x1="23.4519" y1="47.6394" x2="41.2522" y2="16.8084">
		<stop  offset="0" style="stop-color:#DCDCDC"/>
		<stop  offset="0.1236" style="stop-color:#8C8C8C"/>
		<stop  offset="0.2" style="stop-color:#B1B1B1"/>
		<stop  offset="0.3009" style="stop-color:#DBDBDB"/>
		<stop  offset="0.38" style="stop-color:#F5F5F5"/>
		<stop  offset="0.427" style="stop-color:#FFFFFF"/>
		<stop  offset="0.4784" style="stop-color:#F4F4F4"/>
		<stop  offset="0.5689" style="stop-color:#D6D6D6"/>
		<stop  offset="0.6872" style="stop-color:#A7A7A7"/>
		<stop  offset="0.736" style="stop-color:#919191"/>
		<stop  offset="0.8049" style="stop-color:#A8A7A6"/>
		<stop  offset="0.933" style="stop-color:#CFCBC9"/>
		<stop  offset="1" style="stop-color:#DED9D6"/>
		<stop  offset="1" style="stop-color:#DED9D6"/>
		<stop  offset="1" style="stop-color:#E5E5E5"/>
		<a:midPointStop  offset="0" style="stop-color:#DCDCDC"/>
		<a:midPointStop  offset="0.5" style="stop-color:#DCDCDC"/>
		<a:midPointStop  offset="0.1236" style="stop-color:#8C8C8C"/>
		<a:midPointStop  offset="0.4074" style="stop-color:#8C8C8C"/>
		<a:midPointStop  offset="0.427" style="stop-color:#FFFFFF"/>
		<a:midPointStop  offset="0.5818" style="stop-color:#FFFFFF"/>
		<a:midPointStop  offset="0.736" style="stop-color:#919191"/>
		<a:midPointStop  offset="0.4382" style="stop-color:#919191"/>
		<a:midPointStop  offset="1" style="stop-color:#DED9D6"/>
		<a:midPointStop  offset="0.4382" style="stop-color:#DED9D6"/>
		<a:midPointStop  offset="1" style="stop-color:#E5E5E5"/>
	</linearGradient>
	<path fill="#FFFFFF" stroke="url(#SVGID_7_)" stroke-width="0.2195" stroke-miterlimit="10" d="M49.918,32.22
		c0,9.784-7.865,17.734-17.566,17.734c-9.701,0-17.565-7.95-17.565-17.734s7.865-17.725,17.565-17.725
		C42.053,14.495,49.918,22.436,49.918,32.22z"/>
	<g>
		<g>
			<g>
				<path fill="#008BB0" d="M21.499,38.685c0,0.273,0.221,0.494,0.494,0.494h3.332c0.273,0,0.494-0.221,0.494-0.494V27.33
					c0-0.273-0.221-0.494-0.494-0.494h-3.332c-0.273,0-0.494,0.221-0.494,0.494V38.685z"/>
			</g>
			<g>
				<path fill="#008BB0" d="M27.294,38.685c0,0.273,0.221,0.494,0.494,0.494h3.332c0.273,0,0.494-0.221,0.494-0.494V25.453
					c0-0.273-0.221-0.494-0.494-0.494h-3.332c-0.273,0-0.494,0.221-0.494,0.494V38.685z"/>
			</g>
			<g>
				<path fill="#008BB0" d="M33.091,38.685c0,0.273,0.221,0.494,0.494,0.494h3.333c0.273,0,0.494-0.221,0.494-0.494V28.103
					c0-0.273-0.221-0.494-0.494-0.494h-3.333c-0.273,0-0.494,0.221-0.494,0.494V38.685z"/>
			</g>
			<g>
				<path fill="#008BB0" d="M38.886,38.685c0,0.273,0.221,0.494,0.494,0.494h3.333c0.273,0,0.494-0.221,0.494-0.494V23.576
					c0-0.273-0.221-0.494-0.494-0.494H39.38c-0.273,0-0.494,0.221-0.494,0.494V38.685z"/>
			</g>
		</g>
		<g>
			<path fill="#008BB0" d="M20.569,40.867c0,0.273,0.221,0.494,0.494,0.494h22.578c0.273,0,0.494-0.221,0.494-0.494v-0.13
				c0-0.273-0.221-0.494-0.494-0.494H21.063c-0.273,0-0.494,0.221-0.494,0.494V40.867z"/>
		</g>
	</g>
	
		<radialGradient id="SVGID_8_" cx="-329.697" cy="-872.7151" r="149.1222" gradientTransform="matrix(0.1033 0 0 0.1046 66.412 118.6807)" gradientUnits="userSpaceOnUse">
		<stop  offset="0.01" style="stop-color:#FFFFFF;stop-opacity:0.4"/>
		<stop  offset="1" style="stop-color:#FFFFFF;stop-opacity:0.1"/>
		<a:midPointStop  offset="0.01" style="stop-color:#FFFFFF;stop-opacity:0.4"/>
		<a:midPointStop  offset="0.5" style="stop-color:#FFFFFF;stop-opacity:0.4"/>
		<a:midPointStop  offset="1" style="stop-color:#FFFFFF;stop-opacity:0.1"/>
	</radialGradient>
	<path fill="url(#SVGID_8_)" d="M32.352,32.022c6.704,0,12.53,2.875,15.491,8.449c1.323-2.495,2.075-5.345,2.075-8.361
		c0-9.784-7.865-17.727-17.566-17.727c-9.701,0-17.565,7.943-17.565,17.727c0,3.016,0.752,5.866,2.077,8.361
		C19.823,34.897,25.65,32.022,32.352,32.022z"/>
</g>
</svg>
